<svg width="512" height="512" viewBox="0 0 512 512" fill="none" xmlns="http://www.w3.org/2000/svg">
  <defs>
    <linearGradient id="bg" x1="56" y1="46" x2="452" y2="456" gradientUnits="userSpaceOnUse">
      <stop stop-color="#1BC0BB"/>
      <stop offset="1" stop-color="#0A5363"/>
    </linearGradient>
    <linearGradient id="needle" x1="212" y1="316" x2="344" y2="160" gradientUnits="userSpaceOnUse">
      <stop stop-color="#63E5D8"/>
      <stop offset="0.5" stop-color="#FFE07A"/>
      <stop offset="1" stop-color="#FF9800"/>
    </linearGradient>
  </defs>
  <rect x="36" y="36" width="440" height="440" rx="110" fill="url(#bg)"/>
  <circle cx="256" cy="256" r="152" stroke="#F2FCFB" stroke-width="24"/>
  <path d="M256 84L273 118H239L256 84Z" fill="#FFCA35"/>
  <path d="M256 428L273 394H239L256 428Z" fill="#DDF8F6"/>
  <path d="M84 256L118 239V273L84 256Z" fill="#DDF8F6"/>
  <path d="M428 256L394 239V273L428 256Z" fill="#DDF8F6"/>
  <path d="M168 152C168 140.954 176.954 132 188 132H226V222L304 132H350L276 228L344 332H286L238 258L226 271V332H188C176.954 332 168 323.046 168 312V152Z" fill="#F8FEFE"/>
  <path d="M308 172H346V296C346 335.764 321.067 360 278 360C254.327 360 236.01 353.472 221 341L240 311C251.75 320.562 264.686 325 278 325C297.092 325 308 314.214 308 295V172Z" fill="#F1FBFB"/>
  <path d="M216 334L318 186L358 146L334 204L234 348L216 334Z" fill="url(#needle)"/>
  <path d="M234 348L318 186L278 201L216 334L234 348Z" fill="#075063"/>
  <circle cx="286" cy="226" r="25" fill="#075063"/>
  <circle cx="286" cy="226" r="13" fill="#FFF3B3"/>
</svg>
